<?xml version="1.0" encoding="utf-8"?>
<!-- Generator: Adobe Illustrator 24.1.1, SVG Export Plug-In . SVG Version: 6.00 Build 0)  -->
<svg version="1.1" id="Capa_1" xmlns="http://www.w3.org/2000/svg" xmlns:xlink="http://www.w3.org/1999/xlink" x="0px" y="0px"
	 viewBox="0 0 1105.1 245.1" style="enable-background:new 0 0 1105.1 245.1;" xml:space="preserve">
<style type="text/css">
	.st0{fill:#FDFDFD;}
	.st1{fill:#FBFBFB;}
	.st2{fill:#FCFCFC;}
	.st3{fill:#6DBB7C;}
</style>
<g>
	<path class="st0" d="M60.6,105.8c-5.6-1-9.3,0.3-13,0.8c-12.7,1.7-25.4,3.6-38.1,5.6c-2.8,0.4-3.7-0.2-4-3C4.4,100.1,3.1,91,1.6,82
		C1.1,78.9,2,78,5,77.6c22.3-3,44.5-6.4,66.8-9.2c12.2-1.5,21.5-7.2,28.7-16.9c11.8-15.9,23.8-31.7,35.5-47.7c1.8-2.5,3-3.1,5.7-1
		c7,5.6,14.3,10.9,21.6,16.2c2.3,1.7,2.4,2.8,0.7,5c-13.3,17.5-26.3,35.3-39.6,52.7c-8.4,11-19.6,18.4-32.8,22.5
		c-1.3,0.4-2.5,0.8-4.1,1.7c36.7,6.2,60.4,25.9,65.3,63.7c2.6,20.2-4.2,38.2-17.9,53.2c-24.6,27.1-68.6,32.2-99.1,2.8
		c-18-17.4-24.5-38.9-19.3-63.4C21.8,133.2,36.9,116.6,60.6,105.8z M54.3,148.5c-12.4,16.4-9.2,40.2,7,52.6
		c16.6,12.6,40.6,9.4,52.9-7c12.4-16.5,9.1-39.8-7.4-52.4C90.4,129.1,66.7,132.2,54.3,148.5z"/>
	<path class="st1" d="M293.9,164.9c3.4,1.1,6.7,1.8,9.8,3.1c13.2,5.3,19.6,15.4,19.7,29.3c0.2,15.3-6.6,26.8-20.4,33.9
		c-9.8,5-20.3,6.1-31,6.2c-16.7,0.2-33.3,0-50.1,0.1c-3.8,0-4.7-1.2-4.7-4.8c0.1-44,0.1-88,0-132c0-3.6,0.7-4.9,4.6-4.8
		c17.3,0.2,34.4,0,51.7,0.2c11.2,0.1,21.8,2.4,31.1,9.2c10.8,7.7,14.3,18.6,13.2,31.2c-1.1,13.1-8,22-20.4,26.5
		C296.1,163.4,294.8,163.5,293.9,164.9z M240.5,196.1c0,3.2,0,6.4,0,9.6c0,11.9,0,12.1,12.1,11.9c10.1-0.2,20.2,1.3,30.1-1.2
		c8.2-2,14.7-6.3,16.2-15.4c2.2-12.8-4.6-22.7-17.8-24.9c-12.7-2.1-25.5-0.6-38.2-1.1c-2.8-0.1-2.6,1.7-2.6,3.5
		C240.5,184.5,240.5,190.3,240.5,196.1z M240.5,135.7c0,5.6,0.1,11.3,0,17c0,2.1,0.3,3.3,2.9,3.2c10.7-0.2,21.3,0.4,31.8-0.4
		c8.5-0.6,15.8-4.5,18.5-13.5c4.3-14.2-4.5-25.8-20.2-26.5c-9.7-0.4-19.5,0-29.2-0.3c-3.2-0.1-3.8,1.3-3.7,4
		C240.6,124.7,240.5,130.1,240.5,135.7z"/>
	<path class="st1" d="M503.6,217.1c-14.2,17.7-31.8,19.9-51.7,13.8c-12.7-3.9-19.8-13.6-20.3-26.3c-0.5-13.8,6-24.5,18.1-29.7
		c7.5-3.3,15.3-4.4,23.3-4.5c8.3-0.2,16.7-0.2,25,0c2.9,0.1,3.5-0.9,3.6-3.6c0.4-12.6-6.1-20.2-18.6-21
		c-11.3-0.6-21.8,0.6-26.6,13.3c-0.6,1.8-2.1,1.5-3.5,1.5c-4.8,0-9.6-0.2-14.4,0.1c-3.5,0.2-3.7-1.3-3.2-4
		c2.1-10.7,8.3-18.3,17.9-23c14.9-7.2,30.6-7.5,46.1-2.9c15.7,4.7,23.9,16.7,24.1,33.7c0.2,13.3,0,26.6,0,39.9
		c0,7.7,0.6,8.5,8.2,9.3c2.1,0.2,2.7,0.9,2.7,2.9c-0.1,4.5-0.1,8.8,0,13.3c0.1,2.3-0.9,3.1-3.1,3c-3.2-0.1-6.4,0.1-9.6-0.1
		C510,231.9,506.4,228.8,503.6,217.1z M473.7,216.9c16.6-0.2,27.4-10,28-25.5c0.1-3.8-0.5-5.3-4.8-5.1c-7,0.4-14.2,0.1-21.2,0.1
		c-4,0-8.1,0.5-12,1.8c-6,2-9.3,6.1-9.7,12.6c-0.4,6.4,2.2,11,7.9,13.8C465.5,216.5,469.5,217,473.7,216.9z"/>
	<path class="st2" d="M389.5,190.1c-11.5,0-23.1,0.1-34.6-0.1c-3.5,0-4.5,0.7-4,4.5c2.7,25.9,27.8,31.3,43.8,22.6
		c4.2-2.2,7.6-5.6,9.1-10.1c1.2-3.5,2.9-4.7,6.5-4.4c4.3,0.3,8.5,0.3,12.8,0c3.6-0.2,4.4,1.1,3.3,4.3c-5.1,16-15.8,26-32.1,30.1
		c-21.9,5.5-45.1-2.1-57.3-19.4c-15.7-22-13.1-68.6,21.4-81.3c32.2-11.8,72.2,4.8,70.7,49c-0.1,4-1.5,5-5.3,4.9
		C412.2,189.9,400.9,190.1,389.5,190.1z M379.2,174.5c8,0,16-0.1,23.9,0.1c3.3,0.1,3.9-1,3.1-4c-3.1-11-10.1-17.6-21.3-19.7
		c-15.3-2.9-30.2,6.1-32.8,19.7c-0.6,3.1,0,4,3.2,3.9C363.2,174.2,371.2,174.5,379.2,174.5z"/>
	<path class="st1" d="M542.9,180.2c0-8.5-0.4-17,0.1-25.6c0.4-5.8-1.7-7.1-6.8-6.4c-2.4,0.3-5-0.1-7.5,0.1c-3.4,0.4-4.3-1.2-4-4.3
		c0.3-4.8-1.4-10.8,1-14c2.2-3,8.6-1,13.2-1c3.4,0.1,4.2-1.2,4-4.3c-0.2-6.9,0.1-13.8-0.1-20.8c-0.1-3.1,0.9-4,3.9-3.9
		c5.9,0.3,13.2-1.8,17,1.1c3.7,2.8,1.1,10.5,1.2,16.2c0.2,11.7,0.1,11.7,11.9,11.7c12.8,0,12.5,0,12.9,13c0.2,5.2-1.3,6.7-6.4,6.3
		c-4.9-0.4-9.9,0-14.9-0.1c-2.9-0.1-3.6,0.9-3.6,3.6c0.1,17.3,0,34.4,0.1,51.7c0.1,7.1,2.3,9.5,9.7,9.9c4.6,0.3,9.3,0.2,13.8,0.1
		c2.7-0.1,3.8,0.5,3.7,3.5c-0.2,4-0.1,8.2,0,12.2c0.1,2.2-0.3,3.7-3.1,3.5c-7.8-0.3-15.6,0.4-23.4-0.5c-15.2-1.9-22.2-9.4-22.7-24.9
		c0-0.5,0-1.1,0-1.6C543,197.2,543,188.7,542.9,180.2C543,180.2,543,180.2,542.9,180.2z"/>
</g>
<g>
	<path class="st3" d="M700,238.3c-1.4,0.3-1.9,0.4-2.3,0.4c-8.9,1.6-14.9-1.3-18.9-9.7c-3.2-6.6-7.7-12.5-12.2-18.3
		c-5.7-7.9-18.5-11.6-27.4-8.6c-2.7,0.9-1.7,3-1.7,4.6c-0.1,9-0.4,18.1,0.1,27.1c0.3,5.2-2,5.6-6.2,5.4c-3.4-0.1-6.5,0.6-6.5-5
		c0.3-24.7,0.3-49.2,0-73.8c0-4.2,1.3-5.2,5.2-5c12.8,0.3,25.4,0,38.1,0.1c13.5,0,22.8,7.2,24.5,18.5c1.9,13-4.3,21.8-18.3,26.1
		c-0.7,0.3-1.4,0.7-2.7,1.3C684.8,210.8,690.7,225.4,700,238.3z M652.4,192.1c5.7-0.1,11.5,0.3,17.1-1.1c7.9-1.9,11.8-6.5,11.2-14.3
		c-0.4-6.3-5.7-11.3-12.8-11.6c-5.9-0.3-11.9-0.1-17.8-0.1c-12.5,0-12.5,0-12.5,12.3C637.5,192,637.5,192,652.4,192.1z"/>
	<path class="st3" d="M917.7,239c-5.9-1-12.8,3.3-13.5-6.9c-7.9,5.9-15.8,8.6-24.9,8c-9.2-0.6-16.1-5.7-17.6-14
		c-1.7-8.9,2.3-16.6,10.8-20.4c7.7-3.4,16.3-2.6,24.4-4.9c2.6-0.7,6.3,0,6.6-3.9c0.3-3.7-0.7-7.3-4.2-9.7
		c-8.2-5.4-19.9-2.7-24.7,5.9c-2.6,4.9-6.2,2.2-9.5,1.3c-4.7-1.1-1-4-0.4-5.7c1-3.3,3.4-5.9,6.3-8c8.5-6,27.5-6.9,36.3-1.4
		c5.4,3.4,7.2,8.7,7.3,14.8c0.3,8.6,0.1,17.2,0.1,25.8C914.7,226.1,914.7,232.3,917.7,239z M885.2,231.5c11.6,0,19.4-8.6,18.3-20.2
		c-0.1-1.7,0.1-3-2.7-2.3c-6,1.6-12.3,2.4-18.3,3.9c-7,1.7-10.2,5.3-9.5,10.5C873.7,228.7,877.9,231.5,885.2,231.5z"/>
	<path class="st3" d="M738.7,210.5c-6.2,0-12.3,0.1-18.5,0c-2.9,0-4.2,0.4-3.6,3.7c1.3,8.6,6.9,15.1,14.8,16.9
		c6.5,1.4,12.3-1.7,17.3-9.6c1.7-2.6,8-3.4,10.9-1.1c2.7,2.3,0.1,4.4-0.9,6.3c-5.4,10.6-17.2,15.5-31,13.3
		c-11.6-1.9-21.2-11.6-22.4-23.8c-1.3-13.2-0.9-26.1,11-35.1c13.5-10.2,39.3-6.9,44.2,16.6c2.6,12.6,2.6,12.8-10.3,12.8
		C746.4,210.5,742.6,210.5,738.7,210.5z M733.4,201.9c4.4,0,9-0.1,13.5,0c2.6,0.1,3-1.1,2.7-3.3c-0.9-7.5-7.9-13.8-15.5-13.9
		c-7.5-0.1-15.1,5.7-16.5,12.9c-0.6,3-0.1,4.6,3.4,4.3C725.2,201.7,729.2,201.9,733.4,201.9z"/>
	<path class="st3" d="M830.3,210.5c-6.3,0-12.8,0.1-19.1,0c-3.2-0.1-3.7,1.1-3.3,4c1.6,8.7,6.9,15.3,15.1,16.6
		c8,1.3,13.5-2.6,17.3-9.7c2.6-4.6,7-2.3,10.3-1c3.6,1.4,0.6,4.3-0.3,6c-5.3,10.8-17.8,16.1-31.5,13.6
		c-11.8-2.2-20.9-11.8-22.1-23.9c-1.3-13.2-0.7-26.1,11.3-35c13.8-10.2,39.4-6.5,44,17.1c2.4,12.5,2.4,12.5-10,12.5
		C838,210.5,834.2,210.5,830.3,210.5z M824.9,201.9c4,0,8.2-0.1,12.2,0c3.4,0.3,4.3-1,3.6-4.3c-1.6-7.3-7.6-12.6-15.1-13
		c-7.2-0.4-14.6,5-16.6,12c-1,3.6-0.6,5.7,4.2,5.3C817.1,201.6,821,201.9,824.9,201.9z"/>
	<path class="st3" d="M1018.5,210.5c-6.2,0-12.3,0.1-18.5,0c-2.9,0-4.2,0.4-3.6,3.7c1.3,8.6,6.9,15.1,14.8,16.9
		c6.5,1.6,12.5-1.7,17.3-9.5c3.2-4.9,7.6-2.6,10.9-1c3.2,1.4,0.1,4.3-0.7,6.2c-5.4,10.6-17.2,15.5-31,13.3
		c-11.6-1.9-21.2-11.6-22.4-23.7c-1.3-13.3-0.9-26.5,11.6-35.4c13.6-9.7,38.8-6.3,43.7,16.9c2.7,12.8,2.6,12.8-10.3,12.8
		C1026.3,210.5,1022.4,210.5,1018.5,210.5z M1012.9,201.9c4.4,0,9-0.1,13.5,0c3,0.1,3.3-1.3,3-3.7c-1.1-7.3-7.7-13.2-15.2-13.5
		c-7.5-0.4-15.1,5.6-16.6,12.6c-0.7,3.3,0,4.9,3.9,4.6C1005.2,201.7,1009.1,201.9,1012.9,201.9z"/>
	<path class="st3" d="M951.3,240.1c-13.5,0-21.5-4.7-24.7-14.9c-0.6-1.7-2.3-4.3,1.1-4.7c3.2-0.4,6.9-4,9.3,1.3
		c4.2,8.9,14.5,12.5,23.1,7.9c3-1.6,5.2-4.2,5.2-7.7c0-3.9-2.9-5.7-6.2-6.7c-6-1.9-12-3.4-18.1-5.4c-10.2-3.4-14.2-8.5-13.9-16.8
		c0.3-8,5.4-13.9,15.1-16.1c7.5-1.7,15.1-1.4,22.2,1.9c3.6,1.7,6.7,4.2,8,8c0.7,2,3.9,5.2-0.1,6.6c-3.3,1.1-7.3,4.2-10-2.2
		c-3.2-7.2-16.2-8.7-21.9-3.3c-3.7,3.6-2.9,8.6,2.6,10.6c5.9,2.2,12,3.7,18.1,5.6c12.8,4,17.1,9.5,15.6,19.6
		c-1.3,9-10.8,16.2-21.5,16.5C953.7,240.1,952.4,240.1,951.3,240.1z"/>
	<path class="st3" d="M1049.3,221.1c2.2-0.6,4-1.1,6-1.7c2.9-0.7,4.7,0,6,3.2c3.7,8.9,16.6,11.9,24.4,5.9c5-3.9,4-10.9-2-13
		c-6.2-2.2-12.5-3.6-18.6-5.6c-10-3.3-14.6-8.9-14.2-16.8c0.4-8.2,6-14.6,15.6-16.5c7.2-1.4,14.6-1.3,21.6,2
		c3.4,1.7,6.5,3.9,7.9,7.5c0.9,2.2,4,5.3,0.6,7c-3.3,1.6-7.7,4.2-10.6-2.2c-3.3-7-16.6-8.5-22.1-3c-3.7,3.7-2.7,8.5,2.9,10.5
		c6,2.3,12.3,3.9,18.5,5.7c11.2,3.6,16.2,9.2,15.3,17.6c-0.9,9.3-9.2,17.3-19.5,18.1c-6.3,0.4-12.6,0.9-18.8-1.7
		C1054.8,235,1050.9,229,1049.3,221.1z"/>
	<path class="st3" d="M784.3,197.3c0,12.3-0.3,24.5,0.1,36.8c0.1,5.3-2.7,4.6-6,4.7c-3.7,0.1-5.4-0.4-5.3-4.9
		c0.3-24.8,0.3-49.5,0-74.3c0-4.6,1.9-4.9,5.4-4.7c3.6,0,6.2-0.3,6,4.9C784.1,172.3,784.3,184.8,784.3,197.3z"/>
	<g>
	</g>
</g>
</svg>
