<?xml version="1.0" encoding="utf-8"?>
<!-- Generator: Adobe Illustrator 24.1.1, SVG Export Plug-In . SVG Version: 6.00 Build 0)  -->
<svg version="1.1" id="Capa_1" xmlns="http://www.w3.org/2000/svg" xmlns:xlink="http://www.w3.org/1999/xlink" x="0px" y="0px"
	 viewBox="0 0 1412.6 245.1" style="enable-background:new 0 0 1412.6 245.1;" xml:space="preserve">
<style type="text/css">
	.st0{fill:#FDFDFD;}
	.st1{fill:#FBFBFB;}
	.st2{fill:#FCFCFC;}
	.st3{fill:#6DBB7C;}
</style>
<g>
	<path class="st0" d="M60.6,105.8c-5.6-1-9.3,0.3-13,0.8c-12.7,1.7-25.4,3.6-38.1,5.6c-2.8,0.4-3.7-0.2-4-3C4.4,100.1,3.1,91,1.6,82
		C1.1,78.9,2,78,5,77.6c22.3-3,44.5-6.4,66.8-9.2c12.2-1.5,21.5-7.2,28.7-16.9c11.8-15.9,23.8-31.7,35.5-47.7c1.8-2.5,3-3.1,5.7-1
		c7,5.6,14.3,10.9,21.6,16.2c2.3,1.7,2.4,2.8,0.7,5c-13.3,17.5-26.3,35.3-39.6,52.7c-8.4,11-19.6,18.4-32.8,22.5
		c-1.3,0.4-2.5,0.8-4.1,1.7c36.7,6.2,60.4,25.9,65.3,63.7c2.6,20.2-4.2,38.2-17.9,53.2c-24.6,27.1-68.6,32.2-99.1,2.8
		c-18-17.4-24.5-38.9-19.3-63.4C21.8,133.2,36.9,116.6,60.6,105.8z M54.3,148.5c-12.4,16.4-9.2,40.2,7,52.6
		c16.6,12.6,40.6,9.4,52.9-7c12.4-16.5,9.1-39.8-7.4-52.4C90.4,129.1,66.7,132.2,54.3,148.5z"/>
	<path class="st1" d="M294.1,130.6c3.4,1.1,6.7,1.8,9.8,3.1c13.2,5.3,19.6,15.4,19.7,29.3c0.2,15.3-6.6,26.8-20.4,33.9
		c-9.8,5-20.3,6.1-31,6.2c-16.7,0.2-33.3,0-50.1,0.1c-3.8,0-4.7-1.2-4.7-4.8c0.1-44,0.1-88,0-132c0-3.6,0.7-4.9,4.6-4.8
		c17.3,0.2,34.4,0,51.7,0.2c11.2,0.1,21.8,2.4,31.1,9.2c10.8,7.7,14.3,18.6,13.2,31.2c-1.1,13.1-8,22-20.4,26.5
		C296.3,129.1,295,129.2,294.1,130.6z M240.7,161.8c0,3.2,0,6.4,0,9.6c0,11.9,0,12.1,12.1,11.9c10.1-0.2,20.2,1.3,30.1-1.2
		c8.2-2,14.7-6.3,16.2-15.4c2.2-12.8-4.6-22.7-17.8-24.9c-12.7-2.1-25.5-0.6-38.2-1.1c-2.8-0.1-2.6,1.7-2.6,3.5
		C240.7,150.2,240.7,156,240.7,161.8z M240.7,101.4c0,5.6,0.1,11.3,0,17c0,2.1,0.3,3.3,2.9,3.2c10.7-0.2,21.3,0.4,31.8-0.4
		c8.5-0.6,15.8-4.5,18.5-13.5c4.3-14.2-4.5-25.8-20.2-26.5c-9.7-0.4-19.5,0-29.2-0.3c-3.2-0.1-3.8,1.3-3.7,4
		C240.8,90.4,240.7,95.8,240.7,101.4z"/>
	<path class="st1" d="M503.8,182.8c-14.2,17.7-31.8,19.9-51.7,13.8c-12.7-3.9-19.8-13.6-20.3-26.3c-0.5-13.8,6-24.5,18.1-29.7
		c7.5-3.3,15.3-4.4,23.3-4.5c8.3-0.2,16.7-0.2,25,0c2.9,0.1,3.5-0.9,3.6-3.6c0.4-12.6-6.1-20.2-18.6-21
		c-11.3-0.6-21.8,0.6-26.6,13.3c-0.6,1.8-2.1,1.5-3.5,1.5c-4.8,0-9.6-0.2-14.4,0.1c-3.5,0.2-3.7-1.3-3.2-4
		c2.1-10.7,8.3-18.3,17.9-23c14.9-7.2,30.6-7.5,46.1-2.9c15.7,4.7,23.9,16.7,24.1,33.7c0.2,13.3,0,26.6,0,39.9
		c0,7.7,0.6,8.5,8.2,9.3c2.1,0.2,2.7,0.9,2.7,2.9c-0.1,4.5-0.1,8.8,0,13.3c0.1,2.3-0.9,3.1-3.1,3c-3.2-0.1-6.4,0.1-9.6-0.1
		C510.2,197.6,506.6,194.5,503.8,182.8z M473.9,182.6c16.6-0.2,27.4-10,28-25.5c0.1-3.8-0.5-5.3-4.8-5.1c-7,0.4-14.2,0.1-21.2,0.1
		c-4,0-8.1,0.5-12,1.8c-6,2-9.3,6.1-9.7,12.6c-0.4,6.4,2.2,11,7.9,13.8C465.7,182.2,469.7,182.7,473.9,182.6z"/>
	<path class="st2" d="M389.7,155.8c-11.5,0-23.1,0.1-34.6-0.1c-3.5,0-4.5,0.7-4,4.5c2.7,25.9,27.8,31.3,43.8,22.6
		c4.2-2.2,7.6-5.6,9.1-10.1c1.2-3.5,2.9-4.7,6.5-4.4c4.3,0.3,8.5,0.3,12.8,0c3.6-0.2,4.4,1.1,3.3,4.3c-5.1,16-15.8,26-32.1,30.1
		c-21.9,5.5-45.1-2.1-57.3-19.4c-15.7-22-13.1-68.6,21.4-81.3c32.2-11.8,72.2,4.8,70.7,49c-0.1,4-1.5,5-5.3,4.9
		C412.4,155.6,401.1,155.8,389.7,155.8z M379.4,140.2c8,0,16-0.1,23.9,0.1c3.3,0.1,3.9-1,3.1-4c-3.1-11-10.1-17.6-21.3-19.7
		c-15.3-2.9-30.2,6.1-32.8,19.7c-0.6,3.1,0,4,3.2,3.9C363.4,139.9,371.4,140.2,379.4,140.2z"/>
	<path class="st1" d="M543.1,145.9c0-8.5-0.4-17,0.1-25.6c0.4-5.8-1.7-7.1-6.8-6.4c-2.4,0.3-5-0.1-7.5,0.1c-3.4,0.4-4.3-1.2-4-4.3
		c0.3-4.8-1.4-10.8,1-14c2.2-3,8.6-1,13.2-1c3.4,0.1,4.2-1.2,4-4.3c-0.2-6.9,0.1-13.8-0.1-20.8c-0.1-3.1,0.9-4,3.9-3.9
		c5.9,0.3,13.2-1.8,17,1.1c3.7,2.8,1.1,10.5,1.2,16.2c0.2,11.7,0.1,11.7,11.9,11.7c12.8,0,12.5,0,12.9,13c0.2,5.2-1.3,6.7-6.4,6.3
		c-4.9-0.4-9.9,0-14.9-0.1c-2.9-0.1-3.6,0.9-3.6,3.6c0.1,17.3,0,34.4,0.1,51.7c0.1,7.1,2.3,9.5,9.7,9.9c4.6,0.3,9.3,0.2,13.8,0.1
		c2.7-0.1,3.8,0.5,3.7,3.5c-0.2,4-0.1,8.2,0,12.2c0.1,2.2-0.3,3.7-3.1,3.5c-7.8-0.3-15.6,0.4-23.4-0.5c-15.2-1.9-22.2-9.4-22.7-24.9
		c0-0.5,0-1.1,0-1.6C543.2,162.9,543.2,154.4,543.1,145.9C543.2,145.9,543.2,145.9,543.1,145.9z"/>
</g>
<g>
	<path class="st3" d="M747.4,201.8c-2.3,0.5-3.1,0.7-3.8,0.7c-14.6,2.6-24.5-2.1-31.1-16c-5.3-10.9-12.7-20.6-20.1-30.1
		c-9.4-13-30.4-19.1-45.1-14.1c-4.4,1.5-2.8,4.9-2.8,7.6c-0.2,14.8-0.7,29.8,0.2,44.6c0.5,8.6-3.3,9.2-10.2,8.9
		c-5.6-0.2-10.7,1-10.7-8.2c0.5-40.6,0.5-80.9,0-121.4c0-6.9,2.1-8.6,8.6-8.2c21.1,0.5,41.8,0,62.7,0.2c22.2,0,37.5,11.8,40.3,30.4
		c3.1,21.4-7.1,35.9-30.1,42.9c-1.2,0.5-2.3,1.2-4.4,2.1C722.4,156.6,732.1,180.6,747.4,201.8z M669.1,125.8
		c9.4-0.2,18.9,0.5,28.1-1.8c13-3.1,19.4-10.7,18.4-23.5c-0.7-10.4-9.4-18.6-21.1-19.1c-9.7-0.5-19.6-0.2-29.3-0.2
		c-20.6,0-20.6,0-20.6,20.2C644.5,125.6,644.5,125.6,669.1,125.8z"/>
	<path class="st3" d="M1105.5,202.9c-9.7-1.6-21.1,5.4-22.2-11.4c-13,9.7-26,14.1-41,13.2c-15.1-1-26.5-9.4-29-23
		c-2.8-14.6,3.8-27.3,17.8-33.6c12.7-5.6,26.8-4.3,40.1-8.1c4.3-1.2,10.4,0,10.9-6.4c0.5-6.1-1.2-12-6.9-16
		c-13.5-8.9-32.7-4.4-40.6,9.7c-4.3,8.1-10.2,3.6-15.6,2.1c-7.7-1.8-1.6-6.6-0.7-9.4c1.6-5.4,5.6-9.7,10.4-13.2
		c14-9.9,45.2-11.4,59.7-2.3c8.9,5.6,11.8,14.3,12,24.3c0.5,14.1,0.2,28.3,0.2,42.4C1100.5,181.7,1100.5,191.9,1105.5,202.9z
		 M1052,190.6c19.1,0,31.9-14.1,30.1-33.2c-0.2-2.8,0.2-4.9-4.4-3.8c-9.9,2.6-20.2,3.9-30.1,6.4c-11.5,2.8-16.8,8.7-15.6,17.3
		C1033.1,186,1040,190.6,1052,190.6z"/>
	<path class="st3" d="M811,156.1c-10.2,0-20.2,0.2-30.4,0c-4.8,0-6.9,0.7-5.9,6.1c2.1,14.1,11.4,24.8,24.3,27.8
		c10.7,2.3,20.2-2.8,28.5-15.8c2.8-4.3,13.2-5.6,17.9-1.8c4.4,3.8,0.2,7.2-1.5,10.4c-8.9,17.4-28.3,25.5-51,21.9
		c-19.1-3.1-34.9-19.1-36.8-39.1c-2.1-21.7-1.5-42.9,18.1-57.7c22.2-16.8,64.6-11.4,72.7,27.3c4.3,20.7,4.3,21.1-16.9,21.1
		C823.7,156.1,817.4,156.1,811,156.1z M802.3,141.9c7.2,0,14.8-0.2,22.2,0c4.3,0.2,4.9-1.8,4.4-5.4c-1.5-12.3-13-22.7-25.5-22.9
		c-12.3-0.2-24.8,9.4-27.1,21.2c-1,4.9-0.2,7.6,5.6,7.1C788.8,141.6,795.4,141.9,802.3,141.9z"/>
	<path class="st3" d="M961.7,156.1c-10.4,0-21.1,0.2-31.4,0c-5.3-0.2-6.1,1.8-5.4,6.6c2.6,14.3,11.4,25.2,24.8,27.3
		c13.2,2.1,22.2-4.3,28.5-16c4.3-7.6,11.5-3.8,16.9-1.6c5.9,2.3,1,7.1-0.5,9.9c-8.7,17.8-29.3,26.5-51.8,22.4
		c-19.4-3.6-34.4-19.4-36.4-39.3c-2.1-21.7-1.2-42.9,18.6-57.6c22.7-16.8,64.8-10.7,72.4,28.1c3.9,20.6,3.9,20.6-16.4,20.6
		C974.4,156.1,968.1,156.1,961.7,156.1z M952.8,141.9c6.6,0,13.5-0.2,20.1,0c5.6,0.5,7.1-1.6,5.9-7.1c-2.6-12-12.5-20.7-24.8-21.4
		c-11.8-0.7-24,8.2-27.3,19.7c-1.6,5.9-1,9.4,6.9,8.7C940,141.4,946.4,141.9,952.8,141.9z"/>
	<path class="st3" d="M1271.3,156.1c-10.2,0-20.2,0.2-30.4,0c-4.8,0-6.9,0.7-5.9,6.1c2.1,14.1,11.4,24.8,24.3,27.8
		c10.7,2.6,20.6-2.8,28.5-15.6c5.3-8.1,12.5-4.3,17.9-1.6c5.3,2.3,0.2,7.1-1.2,10.2c-8.9,17.4-28.3,25.5-51,21.9
		c-19.1-3.1-34.9-19.1-36.8-39c-2.1-21.9-1.5-43.6,19.1-58.2c22.4-16,63.8-10.4,71.9,27.8c4.4,21.1,4.3,21.1-16.9,21.1
		C1284.1,156.1,1277.7,156.1,1271.3,156.1z M1262.1,141.9c7.2,0,14.8-0.2,22.2,0c4.9,0.2,5.4-2.1,4.9-6.1c-1.8-12-12.7-21.7-25-22.2
		c-12.3-0.7-24.8,9.2-27.3,20.7c-1.2,5.4,0,8.1,6.4,7.6C1249.4,141.6,1255.8,141.9,1262.1,141.9z"/>
	<path class="st3" d="M1160.7,204.8c-22.2,0-35.4-7.7-40.6-24.5c-1-2.8-3.8-7.1,1.8-7.7c5.3-0.7,11.4-6.6,15.3,2.1
		c6.9,14.6,23.9,20.6,38,13c4.9-2.6,8.6-6.9,8.6-12.7c0-6.4-4.8-9.4-10.2-11c-9.9-3.1-19.7-5.6-29.8-8.9
		c-16.8-5.6-23.4-14-22.9-27.6c0.5-13.2,8.9-22.9,24.8-26.5c12.3-2.8,24.8-2.3,36.5,3.1c5.9,2.8,11,6.9,13.2,13.2
		c1.2,3.3,6.4,8.6-0.2,10.9c-5.4,1.8-12,6.9-16.4-3.6c-5.3-11.8-26.6-14.3-36-5.4c-6.1,5.9-4.8,14.1,4.3,17.4
		c9.7,3.6,19.7,6.1,29.8,9.2c21.1,6.6,28.1,15.6,25.7,32.2c-2.1,14.8-17.8,26.6-35.4,27.1C1164.7,204.8,1162.5,204.8,1160.7,204.8z"
		/>
	<path class="st3" d="M1321.9,173.5c3.6-1,6.6-1.8,9.9-2.8c4.8-1.2,7.7,0,9.9,5.3c6.1,14.6,27.3,19.6,40.1,9.7
		c8.2-6.4,6.6-17.9-3.3-21.4c-10.2-3.6-20.6-5.9-30.6-9.2c-16.4-5.4-24-14.6-23.4-27.6c0.7-13.5,9.9-24,25.7-27.1
		c11.8-2.3,24-2.1,35.5,3.3c5.6,2.8,10.7,6.4,13,12.3c1.5,3.6,6.6,8.7,1,11.5c-5.4,2.6-12.7,6.9-17.4-3.6
		c-5.4-11.5-27.3-14-36.4-4.9c-6.1,6.1-4.4,14,4.8,17.3c9.9,3.8,20.2,6.4,30.4,9.4c18.4,5.9,26.6,15.1,25.2,29
		c-1.5,15.3-15.1,28.5-32.1,29.8c-10.4,0.7-20.7,1.5-30.9-2.8C1331,196.4,1324.6,186.5,1321.9,173.5z"/>
	<path class="st3" d="M886,134.3c0,20.2-0.5,40.3,0.2,60.5c0.2,8.7-4.4,7.6-9.9,7.7c-6.1,0.2-8.9-0.7-8.7-8.1
		c0.5-40.8,0.5-81.4,0-122.2c0-7.6,3.1-8.1,8.9-7.7c5.9,0,10.2-0.5,9.9,8.1C885.7,93.2,886,113.8,886,134.3z"/>
</g>
</svg>
