<?xml version="1.0" encoding="utf-8"?>
<!-- Generator: Adobe Illustrator 24.1.1, SVG Export Plug-In . SVG Version: 6.00 Build 0)  -->
<svg version="1.1" id="Capa_1" xmlns="http://www.w3.org/2000/svg" xmlns:xlink="http://www.w3.org/1999/xlink" x="0px" y="0px"
	 viewBox="0 0 934.7 245.1" style="enable-background:new 0 0 934.7 245.1;" xml:space="preserve">
<style type="text/css">
	.st0{fill:#FDFDFD;}
	.st1{fill:#FBFBFB;}
	.st2{fill:#FCFCFC;}
	.st3{fill:#69B979;}
</style>
<g>
	<path class="st0" d="M60.6,105.8c-5.6-1-9.3,0.3-13,0.8c-12.7,1.7-25.4,3.6-38.1,5.6c-2.8,0.4-3.7-0.2-4-3C4.4,100.1,3.1,91,1.6,82
		c-0.5-3.1,0.4-4,3.4-4.4c22.3-3,44.5-6.4,66.8-9.2c12.2-1.5,21.5-7.2,28.7-16.9c11.8-15.9,23.8-31.7,35.5-47.7c1.8-2.5,3-3.1,5.7-1
		c7,5.6,14.3,10.9,21.6,16.2c2.3,1.7,2.4,2.8,0.7,5c-13.3,17.5-26.3,35.3-39.6,52.7c-8.4,11-19.6,18.4-32.8,22.5
		c-1.3,0.4-2.5,0.8-4.1,1.7c36.7,6.2,60.4,25.9,65.3,63.7c2.6,20.2-4.2,38.2-17.9,53.2c-24.6,27.1-68.6,32.2-99.1,2.8
		c-18-17.4-24.5-38.9-19.3-63.4C21.8,133.2,36.9,116.6,60.6,105.8z M54.3,148.5c-12.4,16.4-9.2,40.2,7,52.6
		c16.6,12.6,40.6,9.4,52.9-7c12.4-16.5,9.1-39.8-7.4-52.4C90.4,129.1,66.7,132.2,54.3,148.5z"/>
	<path class="st1" d="M289.2,169.5c3.2,1,6.3,1.7,9.2,2.9c12.4,5,18.4,14.5,18.5,27.5c0.2,14.4-6.2,25.2-19.2,31.8
		c-9.2,4.7-19.1,5.7-29.1,5.8c-15.7,0.2-31.3,0-47,0.1c-3.6,0-4.4-1.1-4.4-4.5c0.1-41.3,0.1-82.6,0-123.9c0-3.4,0.7-4.6,4.3-4.5
		c16.2,0.2,32.3,0,48.5,0.2c10.5,0.1,20.5,2.3,29.2,8.6c10.1,7.2,13.4,17.5,12.4,29.3c-1,12.3-7.5,20.7-19.2,24.9
		C291.3,168.1,290.1,168.2,289.2,169.5z M239.1,198.8c0,3,0,6,0,9c0,11.2,0,11.4,11.4,11.2c9.5-0.2,19,1.2,28.3-1.1
		c7.7-1.9,13.8-5.9,15.2-14.5c2.1-12-4.3-21.3-16.7-23.4c-11.9-2-23.9-0.6-35.9-1c-2.6-0.1-2.4,1.6-2.4,3.3
		C239.1,187.9,239.1,193.4,239.1,198.8z M239.1,142.1c0,5.3,0.1,10.6,0,16c0,2,0.3,3.1,2.7,3c10-0.2,20,0.4,29.9-0.4
		c8-0.6,14.8-4.2,17.4-12.7c4-13.3-4.2-24.2-19-24.9c-9.1-0.4-18.3,0-27.4-0.3c-3-0.1-3.6,1.2-3.5,3.8
		C239.2,131.8,239.1,136.9,239.1,142.1z"/>
	<path class="st1" d="M486.1,223c-13.3,16.6-29.9,18.7-48.5,13c-11.9-3.7-18.6-12.8-19.1-24.7c-0.5-13,5.6-23,17-27.9
		c7-3.1,14.4-4.1,21.9-4.2c7.8-0.2,15.7-0.2,23.5,0c2.7,0.1,3.3-0.8,3.4-3.4c0.4-11.8-5.7-19-17.5-19.7c-10.6-0.6-20.5,0.6-25,12.5
		c-0.6,1.7-2,1.4-3.3,1.4c-4.5,0-9-0.2-13.5,0.1c-3.3,0.2-3.5-1.2-3-3.8c2-10,7.8-17.2,16.8-21.6c14-6.8,28.7-7,43.3-2.7
		c14.7,4.4,22.4,15.7,22.6,31.6c0.2,12.5,0,25,0,37.5c0,7.2,0.6,8,7.7,8.7c2,0.2,2.5,0.8,2.5,2.7c-0.1,4.2-0.1,8.3,0,12.5
		c0.1,2.2-0.8,2.9-2.9,2.8c-3-0.1-6,0.1-9-0.1C492.1,236.9,488.7,234,486.1,223z M458,222.8c15.6-0.2,25.7-9.4,26.3-23.9
		c0.1-3.6-0.5-5-4.5-4.8c-6.6,0.4-13.3,0.1-19.9,0.1c-3.8,0-7.6,0.5-11.3,1.7c-5.6,1.9-8.7,5.7-9.1,11.8c-0.4,6,2.1,10.3,7.4,13
		C450.3,222.4,454.1,222.9,458,222.8z"/>
	<path class="st2" d="M379,193.2c-10.8,0-21.7,0.1-32.5-0.1c-3.3,0-4.2,0.7-3.8,4.2c2.5,24.3,26.1,29.4,41.1,21.2
		c3.9-2.1,7.1-5.3,8.5-9.5c1.1-3.3,2.7-4.4,6.1-4.1c4,0.3,8,0.3,12,0c3.4-0.2,4.1,1,3.1,4c-4.8,15-14.8,24.4-30.1,28.3
		c-20.6,5.2-42.3-2-53.8-18.2c-14.7-20.7-12.3-64.4,20.1-76.3c30.2-11.1,67.8,4.5,66.4,46c-0.1,3.8-1.4,4.7-5,4.6
		C400.3,193,389.7,193.2,379,193.2z M369.3,178.5c7.5,0,15-0.1,22.4,0.1c3.1,0.1,3.7-0.9,2.9-3.8c-2.9-10.3-9.5-16.5-20-18.5
		c-14.4-2.7-28.4,5.7-30.8,18.5c-0.6,2.9,0,3.8,3,3.7C354.3,178.3,361.8,178.5,369.3,178.5z"/>
	<path class="st1" d="M523,188.3c0-8-0.4-16,0.1-24c0.4-5.4-1.6-6.7-6.4-6c-2.3,0.3-4.7-0.1-7,0.1c-3.2,0.4-4-1.1-3.8-4
		c0.3-4.5-1.3-10.1,0.9-13.1c2.1-2.8,8.1-0.9,12.4-0.9c3.2,0.1,3.9-1.1,3.8-4c-0.2-6.5,0.1-13-0.1-19.5c-0.1-2.9,0.8-3.8,3.7-3.7
		c5.5,0.3,12.4-1.7,16,1c3.5,2.6,1,9.9,1.1,15.2c0.2,11,0.1,11,11.2,11c12,0,11.7,0,12.1,12.2c0.2,4.9-1.2,6.3-6,5.9
		c-4.6-0.4-9.3,0-14-0.1c-2.7-0.1-3.4,0.8-3.4,3.4c0.1,16.2,0,32.3,0.1,48.5c0.1,6.7,2.2,8.9,9.1,9.3c4.3,0.3,8.7,0.2,13,0.1
		c2.5-0.1,3.6,0.5,3.5,3.3c-0.2,3.8-0.1,7.7,0,11.5c0.1,2.1-0.3,3.5-2.9,3.3c-7.3-0.3-14.6,0.4-22-0.5c-14.3-1.8-20.8-8.8-21.3-23.4
		c0-0.5,0-1,0-1.5C523.1,204.3,523.1,196.3,523,188.3C523.1,188.3,523.1,188.3,523,188.3z"/>
</g>
<g>
	<path class="st3" d="M652.4,239c-1,0.2-1.3,0.3-1.6,0.3c-6.2,1.1-10.4-0.9-13.2-6.8c-2.2-4.6-5.4-8.7-8.5-12.8
		c-4-5.5-12.9-8.1-19.1-6c-1.9,0.6-1.2,2.1-1.2,3.2c-0.1,6.3-0.3,12.6,0.1,18.9c0.2,3.6-1.4,3.9-4.3,3.8c-2.4-0.1-4.5,0.4-4.5-3.5
		c0.2-17.2,0.2-34.3,0-51.5c0-2.9,0.9-3.6,3.6-3.5c8.9,0.2,17.7,0,26.6,0.1c9.4,0,15.9,5,17.1,12.9c1.3,9.1-3,15.2-12.8,18.2
		c-0.5,0.2-1,0.5-1.9,0.9C641.8,219.8,645.9,230,652.4,239z M619.2,206.8c4-0.1,8,0.2,11.9-0.8c5.5-1.3,8.2-4.5,7.8-10
		c-0.3-4.4-4-7.9-8.9-8.1c-4.1-0.2-8.3-0.1-12.4-0.1c-8.7,0-8.7,0-8.7,8.6C608.8,206.7,608.8,206.7,619.2,206.8z"/>
	<path class="st3" d="M804.3,239.5c-4.1-0.7-8.9,2.3-9.4-4.8c-5.5,4.1-11,6-17.4,5.6c-6.4-0.4-11.2-4-12.3-9.8
		c-1.2-6.2,1.6-11.6,7.5-14.2c5.4-2.4,11.4-1.8,17-3.4c1.8-0.5,4.4,0,4.6-2.7c0.2-2.6-0.5-5.1-2.9-6.8c-5.7-3.8-13.9-1.9-17.2,4.1
		c-1.8,3.4-4.3,1.5-6.6,0.9c-3.3-0.8-0.7-2.8-0.3-4c0.7-2.3,2.4-4.1,4.4-5.6c5.9-4.2,19.2-4.8,25.3-1c3.8,2.4,5,6.1,5.1,10.3
		c0.2,6,0.1,12,0.1,18C802.2,230.5,802.2,234.8,804.3,239.5z M781.6,234.3c8.1,0,13.5-6,12.8-14.1c-0.1-1.2,0.1-2.1-1.9-1.6
		c-4.2,1.1-8.6,1.7-12.8,2.7c-4.9,1.2-7.1,3.7-6.6,7.3C773.6,232.3,776.5,234.3,781.6,234.3z"/>
	<path class="st3" d="M679.4,219.6c-4.3,0-8.6,0.1-12.9,0c-2,0-2.9,0.3-2.5,2.6c0.9,6,4.8,10.5,10.3,11.8c4.5,1,8.6-1.2,12.1-6.7
		c1.2-1.8,5.6-2.4,7.6-0.8c1.9,1.6,0.1,3.1-0.6,4.4c-3.8,7.4-12,10.8-21.6,9.3c-8.1-1.3-14.8-8.1-15.6-16.6
		c-0.9-9.2-0.6-18.2,7.7-24.5c9.4-7.1,27.4-4.8,30.8,11.6c1.8,8.8,1.8,8.9-7.2,8.9C684.8,219.6,682.1,219.6,679.4,219.6z
		 M675.7,213.6c3.1,0,6.3-0.1,9.4,0c1.8,0.1,2.1-0.8,1.9-2.3c-0.6-5.2-5.5-9.6-10.8-9.7c-5.2-0.1-10.5,4-11.5,9
		c-0.4,2.1-0.1,3.2,2.4,3C670,213.5,672.8,213.6,675.7,213.6z"/>
	<path class="st3" d="M743.3,219.6c-4.4,0-8.9,0.1-13.3,0c-2.2-0.1-2.6,0.8-2.3,2.8c1.1,6.1,4.8,10.7,10.5,11.6
		c5.6,0.9,9.4-1.8,12.1-6.8c1.8-3.2,4.9-1.6,7.2-0.7c2.5,1,0.4,3-0.2,4.2c-3.7,7.5-12.4,11.2-22,9.5c-8.2-1.5-14.6-8.2-15.4-16.7
		c-0.9-9.2-0.5-18.2,7.9-24.4c9.6-7.1,27.5-4.5,30.7,11.9c1.7,8.7,1.7,8.7-7,8.7C748.7,219.6,746,219.6,743.3,219.6z M739.5,213.6
		c2.8,0,5.7-0.1,8.5,0c2.4,0.2,3-0.7,2.5-3c-1.1-5.1-5.3-8.8-10.5-9.1c-5-0.3-10.2,3.5-11.6,8.4c-0.7,2.5-0.4,4,2.9,3.7
		C734.1,213.4,736.8,213.6,739.5,213.6z"/>
	<path class="st3" d="M874.6,219.6c-4.3,0-8.6,0.1-12.9,0c-2,0-2.9,0.3-2.5,2.6c0.9,6,4.8,10.5,10.3,11.8c4.5,1.1,8.7-1.2,12.1-6.6
		c2.2-3.4,5.3-1.8,7.6-0.7c2.2,1,0.1,3-0.5,4.3c-3.8,7.4-12,10.8-21.6,9.3c-8.1-1.3-14.8-8.1-15.6-16.5c-0.9-9.3-0.6-18.5,8.1-24.7
		c9.5-6.8,27.1-4.4,30.5,11.8c1.9,8.9,1.8,8.9-7.2,8.9C880,219.6,877.3,219.6,874.6,219.6z M870.7,213.6c3.1,0,6.3-0.1,9.4,0
		c2.1,0.1,2.3-0.9,2.1-2.6c-0.8-5.1-5.4-9.2-10.6-9.4c-5.2-0.3-10.5,3.9-11.6,8.8c-0.5,2.3,0,3.4,2.7,3.2
		C865.3,213.5,868,213.6,870.7,213.6z"/>
	<path class="st3" d="M827.7,240.3c-9.4,0-15-3.3-17.2-10.4c-0.4-1.2-1.6-3,0.8-3.3c2.2-0.3,4.8-2.8,6.5,0.9
		c2.9,6.2,10.1,8.7,16.1,5.5c2.1-1.1,3.6-2.9,3.6-5.4c0-2.7-2-4-4.3-4.7c-4.2-1.3-8.4-2.4-12.6-3.8c-7.1-2.4-9.9-5.9-9.7-11.7
		c0.2-5.6,3.8-9.7,10.5-11.2c5.2-1.2,10.5-1,15.5,1.3c2.5,1.2,4.7,2.9,5.6,5.6c0.5,1.4,2.7,3.6-0.1,4.6c-2.3,0.8-5.1,2.9-7-1.5
		c-2.2-5-11.3-6.1-15.3-2.3c-2.6,2.5-2,6,1.8,7.4c4.1,1.5,8.4,2.6,12.6,3.9c8.9,2.8,11.9,6.6,10.9,13.7c-0.9,6.3-7.5,11.3-15,11.5
		C829.4,240.3,828.5,240.3,827.7,240.3z"/>
	<path class="st3" d="M896.1,227c1.5-0.4,2.8-0.8,4.2-1.2c2-0.5,3.3,0,4.2,2.2c2.6,6.2,11.6,8.3,17,4.1c3.5-2.7,2.8-7.6-1.4-9.1
		c-4.3-1.5-8.7-2.5-13-3.9c-7-2.3-10.2-6.2-9.9-11.7c0.3-5.7,4.2-10.2,10.9-11.5c5-1,10.2-0.9,15.1,1.4c2.4,1.2,4.5,2.7,5.5,5.2
		c0.6,1.5,2.8,3.7,0.4,4.9c-2.3,1.1-5.4,2.9-7.4-1.5c-2.3-4.9-11.6-5.9-15.4-2.1c-2.6,2.6-1.9,5.9,2,7.3c4.2,1.6,8.6,2.7,12.9,4
		c7.8,2.5,11.3,6.4,10.7,12.3c-0.6,6.5-6.4,12.1-13.6,12.6c-4.4,0.3-8.8,0.6-13.1-1.2C899.9,236.7,897.2,232.5,896.1,227z"/>
	<path class="st3" d="M711.2,210.4c0,8.6-0.2,17.1,0.1,25.7c0.1,3.7-1.9,3.2-4.2,3.3c-2.6,0.1-3.8-0.3-3.7-3.4
		c0.2-17.3,0.2-34.5,0-51.8c0-3.2,1.3-3.4,3.8-3.3c2.5,0,4.3-0.2,4.2,3.4C711.1,193,711.2,201.7,711.2,210.4z"/>
</g>
</svg>
